<svg width="100%" viewBox="0 0 680 560" xmlns="http://www.w3.org/2000/svg" role="img">
<title>Animated satellite orbiting Earth with twinkling stars</title>
<desc>A satellite with solar panels moves along an orbital path above a curved Earth horizon, while four-pointed sparkle stars twinkle around it.</desc>

<g fill="#93A5FF">
  <path d="M120 90 L124 100 L134 104 L124 108 L120 118 L116 108 L106 104 L116 100 Z">
    <animate attributeName="opacity" values="1;0.25;1" dur="2.2s" begin="0s" repeatCount="indefinite"/>
  </path>
  <path d="M560 130 L563 137 L570 140 L563 143 L560 150 L557 143 L550 140 L557 137 Z">
    <animate attributeName="opacity" values="1;0.25;1" dur="1.8s" begin="0.4s" repeatCount="indefinite"/>
  </path>
  <path d="M600 380 L604 390 L614 394 L604 398 L600 408 L596 398 L586 394 L596 390 Z">
    <animate attributeName="opacity" values="1;0.25;1" dur="2.5s" begin="0.8s" repeatCount="indefinite"/>
  </path>
  <path d="M90 420 L93 427 L100 430 L93 433 L90 440 L87 433 L80 430 L87 427 Z">
    <animate attributeName="opacity" values="1;0.25;1" dur="2s" begin="1.1s" repeatCount="indefinite"/>
  </path>
  <path d="M480 60 L483 67 L490 70 L483 73 L480 80 L477 73 L470 70 L477 67 Z">
    <animate attributeName="opacity" values="1;0.25;1" dur="2.3s" begin="0.2s" repeatCount="indefinite"/>
  </path>
  <path d="M200 480 L203 487 L210 490 L203 493 L200 500 L197 493 L190 490 L197 487 Z">
    <animate attributeName="opacity" values="1;0.25;1" dur="1.9s" begin="1.4s" repeatCount="indefinite"/>
  </path>
  <path d="M540 460 L543 467 L550 470 L543 473 L540 480 L537 473 L530 470 L537 467 Z">
    <animate attributeName="opacity" values="1;0.25;1" dur="2.1s" begin="0.6s" repeatCount="indefinite"/>
  </path>
</g>

<ellipse cx="340" cy="470" rx="230" ry="60" fill="none" stroke="#C7D2FE" stroke-width="1.5" stroke-dasharray="6 6"/>

<path d="M120 540 A220 220 0 0 1 560 540 Z" fill="#4C6FFF" opacity="0.15"/>
<path d="M150 540 A190 190 0 0 1 530 540 Z" fill="#4C6FFF" opacity="0.25"/>

<path id="orbitpath" d="M 570 470 A 230 60 0 1 1 110 470 A 230 60 0 1 1 570 470" fill="none" stroke="none"/>

<g>
  <g transform="rotate(-18)">
    <rect x="-150" y="-16" width="90" height="32" rx="4" fill="#3B5BFD"/>
    <line x1="-150" y1="-8" x2="-60" y2="-8" stroke="#8FA6FF" stroke-width="1"/>
    <line x1="-150" y1="0" x2="-60" y2="0" stroke="#8FA6FF" stroke-width="1"/>
    <line x1="-150" y1="8" x2="-60" y2="8" stroke="#8FA6FF" stroke-width="1"/>
    <rect x="-58" y="-22" width="10" height="44" rx="3" fill="#2C46C7"/>

    <circle cx="0" cy="0" r="46" fill="#5B7CFF"/>
    <circle cx="0" cy="-6" r="14" fill="#2C46C7"/>
    <circle cx="0" cy="-6" r="8" fill="#8FA6FF"/>

    <rect x="58" y="-22" width="10" height="44" rx="3" fill="#2C46C7"/>
    <rect x="70" y="-16" width="90" height="32" rx="4" fill="#3B5BFD"/>
    <line x1="80" y1="-8" x2="170" y2="-8" stroke="#8FA6FF" stroke-width="1"/>
    <line x1="80" y1="0" x2="170" y2="0" stroke="#8FA6FF" stroke-width="1"/>
    <line x1="80" y1="8" x2="170" y2="8" stroke="#8FA6FF" stroke-width="1"/>

    <line x1="0" y1="-46" x2="0" y2="-70" stroke="#2C46C7" stroke-width="3" stroke-linecap="round"/>
    <circle cx="0" cy="-74" r="5" fill="#2C46C7"/>
  </g>
  <animateMotion dur="9s" repeatCount="indefinite" rotate="0">
    <mpath href="#orbitpath"/>
  </animateMotion>
</g>
</svg>
